# xmcd
#
# Track frame offsets: 
#        150
#        14315
#        28225
#        42167
#        56725
#        71010
#        84542
#        98072
#        111232
#        124910
#        138735
#        152672
#        166377
#        179850
#        193560
#        206800
#        219452
#        232877
#        245937
#        259145
#        272375
#
# Disc length: 3805 seconds
#
# Revision: 0
# Processed by: cddbd v1.5.2PL0 Copyright (c) Steve Scherf et al.
# Submitted via: ExactAudioCopy v0.99pb4
#
DISCID=3d0edb15
DTITLE=Sylvester Weaver - Volume 2 DOCD-5113
DYEAR=1992
DGENRE=Blues
TTITLE0=01  - Can`t be trusted blues
TTITLE1=02  - Penitentiary bound blues
TTITLE2=03 - Soft steel piston (Weaver and Beasley)
TTITLE3=04  - Chittlin rag blues (Weaver and Beasley)
TTITLE4=05  - Cross-eyed blues (Helen Humes, vocal)
TTITLE5=06  - Garlic blues (Helen Humes, vocal)
TTITLE6=07  - Railroad porter blues
TTITLE7=08  - Me and my tapeworm
TTITLE8=09  - Rock pile blues
TTITLE9=10  - Devil blues
TTITLE10=11  - Polecat blues
TTITLE11=12  - Alligator blues (Helen Humes, vocal)
TTITLE12=13  - Nappy headed blues (Helen Humes, vocal)
TTITLE13=14  - Race horse blues (Helen Humes, vocal)
TTITLE14=15  - Bottleneck blues (Weaver and Beasley)
TTITLE15=16  - St. Louis blues (Weaver and Beasley)
TTITLE16=17  - Georgia skin (Walter Beasley, vocal)
TTITLE17=18  - Southern man blues (Walter Beasley, vocal)
TTITLE18=19  - Toad frog blues (Walter Beasley, vocal)
TTITLE19=20  - Sore feet blues (Walter Beasley, vocal)
TTITLE20=21  - Black spider blues
EXTD=
EXTT0=
EXTT1=
EXTT2=
EXTT3=
EXTT4=
EXTT5=
EXTT6=
EXTT7=
EXTT8=
EXTT9=
EXTT10=
EXTT11=
EXTT12=
EXTT13=
EXTT14=
EXTT15=
EXTT16=
EXTT17=
EXTT18=
EXTT19=
EXTT20=
PLAYORDER=
